<svg width="565" height="468" viewBox="0 0 565 468" fill="none" xmlns="http://www.w3.org/2000/svg">
<path d="M563.836 322.136C556.607 359.621 523.175 386.33 484.998 386.33H80.7658C35.3482 386.33 -1.56681 348.779 0.293957 303.413C0.453707 299.374 0.785988 295.348 1.33042 291.335C4.16119 270.286 12.5461 250.01 30.6567 234.861C34.152 231.937 37.1285 228.776 39.6794 225.388C81.815 169.34 3.60269 54.6647 97.1229 64.4976C196.278 74.9414 190.192 -36.3979 264.126 14.0435C338.059 64.4976 350.245 82.7692 427.66 62.757C505.076 42.7588 545.085 78.4099 519.852 141.05C508.052 170.336 500.253 203.995 500.996 231.807C501.009 232.073 501.009 232.326 501.023 232.578C502.02 263.844 513.953 287.537 543.346 288.918C546.999 289.091 550.109 289.702 552.74 290.686C554.016 291.164 555.185 291.736 556.248 292.4C565.045 297.845 566.361 309.047 563.836 322.136Z" fill="#BB99FF"/>
<path opacity="0.65" d="M140.589 229.025V306.613H0.244141C0.244141 305.559 0.24414 304.491 0.299094 303.408C0.43584 299.779 0.723391 296.149 1.1758 292.546C1.2167 292.135 1.27165 291.739 1.32661 291.327C4.16121 270.29 12.5436 250.006 30.6644 234.858C33.4172 232.557 35.8416 230.105 38.0052 227.503C38.5803 226.804 39.1413 226.092 39.6756 225.38C48.5231 213.629 52.0568 199.275 53.0025 184.044H90.7623V209.176L140.589 229.025Z" fill="#6E67D6"/>
<path fill-rule="evenodd" clip-rule="evenodd" d="M241.488 292.548H1.17456C1.21546 292.136 1.27041 291.74 1.32536 291.329C4.15997 270.291 12.5424 250.007 30.6631 234.859C33.4159 232.558 35.8403 230.106 38.004 227.504C49.0702 229.517 58.9734 234.804 66.7245 242.336C72.1623 239.653 78.298 238.159 84.7762 238.159C103.937 238.159 120.044 251.252 124.632 268.975C128.357 268.031 132.26 267.509 136.287 267.509C137.739 267.509 139.177 267.578 140.588 267.701C147.025 268.29 153.065 270.166 158.489 273.084C167.076 262.085 180.458 255.005 195.496 255.005C218.192 255.007 237.133 271.127 241.488 292.548Z" fill="#E66CE5"/>
<path fill-rule="evenodd" clip-rule="evenodd" d="M543.346 288.916C514.531 287.561 502.497 264.774 501.085 234.423C493.184 236.717 486.093 240.913 480.348 246.495C475.476 244.11 470.003 242.767 464.212 242.767C447.102 242.767 432.725 254.46 428.631 270.29C425.303 269.439 421.816 268.985 418.222 268.985C411.051 268.985 404.303 270.79 398.403 273.963C390.733 264.137 378.787 257.809 365.356 257.809C345.082 257.809 328.173 272.207 324.289 291.335H554.287C551.355 289.962 547.741 289.12 543.346 288.916Z" fill="#E66CE5"/>
<path d="M277.146 467.137C405.501 467.137 509.553 461.748 509.553 455.102C509.553 448.455 405.501 443.067 277.146 443.067C148.791 443.067 44.739 448.455 44.739 455.102C44.739 461.748 148.791 467.137 277.146 467.137Z" fill="#BB99FF"/>
<path d="M555.075 292.511H1.04034C0.541915 296.349 0.223694 300.211 0.0665003 304.07C-1.78149 349.443 35.1284 386.995 80.5383 386.995H484.774C522.949 386.995 556.385 360.287 563.611 322.802C566.224 309.245 564.719 297.726 555.075 292.511Z" fill="#D4F4FC"/>
<path d="M33.4644 371.871C46.7274 381.37 62.9913 386.995 80.5382 386.995H484.773C502.157 386.995 518.547 381.443 531.938 371.871H33.4644Z" fill="#E66CE5"/>
<path fill-rule="evenodd" clip-rule="evenodd" d="M185.203 108.631C179.971 104.141 173.132 101.415 165.642 101.415C162.192 101.415 158.883 101.998 155.802 103.059C153.933 88.6633 141.431 77.5332 126.275 77.5332C114.152 77.5332 103.73 84.6568 99.0833 94.8731C95.6902 93.5516 91.9956 92.8181 88.1232 92.8181C84.6215 92.8181 81.2629 93.4175 78.142 94.5089C72.8383 86.4524 63.6214 81.1167 53.1303 81.1167C37.2831 81.1167 24.3318 93.2846 23.4104 108.632L185.203 108.631Z" fill="white"/>
<path fill-rule="evenodd" clip-rule="evenodd" d="M374.698 136.004C370.873 132.722 365.874 130.729 360.396 130.729C357.875 130.729 355.455 131.154 353.202 131.93C351.835 121.404 342.694 113.267 331.614 113.267C322.751 113.267 315.131 118.475 311.734 125.945C309.253 124.979 306.551 124.442 303.721 124.442C301.161 124.442 298.704 124.881 296.423 125.678C292.546 119.788 285.807 115.886 278.136 115.886C266.55 115.886 257.081 124.782 256.408 136.004H374.698Z" fill="white"/>
<path fill-rule="evenodd" clip-rule="evenodd" d="M560.486 180.249C555.585 176.043 549.18 173.489 542.161 173.489C538.93 173.489 535.83 174.035 532.944 175.028C531.193 161.543 519.481 151.117 505.284 151.117C493.928 151.117 484.164 157.789 479.812 167.36C476.634 166.123 473.172 165.434 469.545 165.434C466.264 165.434 463.118 165.995 460.195 167.018C455.226 159.471 446.592 154.471 436.765 154.471C421.92 154.471 409.788 165.87 408.926 180.247L560.486 180.249Z" fill="white"/>
<path d="M556.248 292.397H466.21C462.781 292.397 459.38 291.959 456.071 291.095C429.111 284.026 369.181 263.762 345.289 240.215L345.316 231.803H500.997C501.009 232.069 501.009 232.322 501.024 232.574C502.02 263.84 513.953 287.533 543.346 288.914C547 289.087 550.109 289.698 552.74 290.682C554.016 291.161 555.185 291.732 556.248 292.397Z" fill="white"/>
<path d="M495.66 251.171C493.603 251.164 491.914 252.839 491.906 254.897L491.891 258.756C491.883 260.812 493.559 262.502 495.615 262.51C497.671 262.517 499.361 260.842 499.368 258.786L499.384 254.926C499.391 252.868 497.716 251.179 495.66 251.171Z" fill="#61BAC9"/>
<path d="M478.726 251.106C476.67 251.098 474.98 252.774 474.973 254.83L474.957 258.69C474.95 260.746 476.625 262.436 478.683 262.443C480.739 262.451 482.429 260.775 482.436 258.719L482.452 254.86C482.459 252.803 480.784 251.114 478.726 251.106Z" fill="#61BAC9"/>
<path d="M461.794 251.04C459.738 251.032 458.048 252.707 458.041 254.765L458.025 258.625C458.016 260.681 459.693 262.37 461.749 262.378C463.806 262.386 465.495 260.71 465.503 258.653L465.518 254.793C465.527 252.737 463.85 251.049 461.794 251.04Z" fill="#61BAC9"/>
<path d="M443.529 231.803C437.894 228.558 427.388 222.35 415.682 211.455C401.12 197.898 378.729 175.984 368.963 166.386C365.87 163.347 361.622 161.775 357.209 162.04L338.251 163.171L363.913 231.803H443.529Z" fill="#6E67D6"/>
<path d="M368.157 169.745C377.924 179.343 400.314 201.256 414.877 214.813C423.386 222.733 431.259 228.174 437.091 231.803H443.529C437.894 228.558 427.388 222.35 415.682 211.454C401.12 197.898 378.729 175.984 368.963 166.386C365.87 163.347 361.622 161.775 357.209 162.04L338.251 163.171L339.461 166.409L356.404 165.398C360.817 165.135 365.065 166.706 368.157 169.745Z" fill="white"/>
<path d="M148.987 159.148H137.904V291.335H148.987V159.148Z" fill="#E66CE5"/>
<path d="M148.987 159.148H137.904V171.563H148.987V159.148Z" fill="#61BAC9"/>
<path d="M170.044 134.765H116.846L122.711 164.588H164.179L170.044 134.765Z" fill="#E66CE5"/>
<path d="M164.829 161.289L169.284 138.631H117.607L122.062 161.289H164.829Z" fill="#61BAC9"/>
<path d="M153.594 130.04H133.835V134.979H153.594V130.04Z" fill="#61BAC9"/>
<path d="M153.594 130.04H133.835L128.906 122.663H158.522L153.594 130.04Z" fill="#E66CE5"/>
<path d="M153.594 120.268H133.835L128.906 122.663H158.522L153.594 120.268Z" fill="#61BAC9"/>
<path d="M145.263 95.8738H142.211V121.556H145.263V95.8738Z" fill="#61BAC9"/>
<path d="M174.856 140.564H111.927L121.439 158.139H165.344L174.856 140.564Z" fill="#E66CE5"/>
<path d="M127.694 155.583H123.544L118.726 145.116H123.884L127.694 155.583Z" fill="#61BAC9"/>
<path d="M136.806 155.583H132.657L130.051 145.116H135.208L136.806 155.583Z" fill="#61BAC9"/>
<path d="M145.918 155.583H141.767L141.374 145.116H146.531L145.918 155.583Z" fill="#61BAC9"/>
<path d="M155.029 155.583H150.88L152.697 145.116H157.855L155.029 155.583Z" fill="#61BAC9"/>
<path d="M164.141 155.583H159.992L164.021 145.116H169.178L164.141 155.583Z" fill="#61BAC9"/>
<path d="M434.438 245.777H394.979C393.031 245.777 391.451 247.356 391.451 249.304C391.451 251.252 393.031 252.831 394.979 252.831H434.438C436.386 252.831 437.966 251.252 437.966 249.304C437.966 247.355 436.386 245.777 434.438 245.777Z" fill="#61BAC9"/>
<path d="M475.403 93.2053C475.168 92.8462 474.317 92.2302 473.118 91.5363C473.062 91.503 472.995 91.4685 472.939 91.4353C472.716 91.3126 472.48 91.1772 472.234 91.0545C472.133 90.9982 472.02 90.942 471.909 90.8858C471.674 90.7631 471.427 90.6391 471.17 90.5164C471.048 90.4602 470.912 90.3937 470.79 90.3375C470.531 90.2148 470.275 90.1024 470.005 89.9797C469.859 89.9234 469.725 89.8672 469.591 89.8123C469.311 89.6896 469.041 89.5771 468.751 89.4646C468.662 89.4314 468.572 89.3969 468.483 89.3637H468.471C465.491 88.2326 462.13 87.4364 459.576 87.963L440.006 92.0513L435.174 89.1375V87.2013C435.174 86.478 434.588 85.8913 433.866 85.8913H429.793L419.006 79.3863L415.289 80.1301L426.554 94.8974L400.257 100.691C398.195 101.139 396.045 100.613 394.42 99.2682L390.32 95.8508C387.194 93.2514 383.061 92.2098 379.084 93.0277L375.589 93.7331L382.3 103.436L376.485 104.611L377 105.452C377.515 106.259 378.478 106.674 379.419 106.484L383.799 105.588L385.458 107.997C386.309 109.229 387.35 110.293 388.516 111.156C388.539 111.178 388.561 111.189 388.584 111.201C389.312 111.739 390.085 112.209 390.903 112.59C390.948 112.613 390.981 112.623 391.026 112.646C391.407 112.814 391.788 112.971 392.18 113.117C392.213 113.128 392.258 113.14 392.292 113.15C392.718 113.296 393.143 113.418 393.569 113.519C393.625 113.531 393.681 113.542 393.726 113.552C394.107 113.642 394.476 113.71 394.857 113.754C394.947 113.766 395.026 113.788 395.115 113.788C395.541 113.844 395.978 113.877 396.404 113.889H396.561C396.942 113.889 397.323 113.877 397.703 113.844C397.816 113.844 397.927 113.832 398.039 113.821C398.465 113.776 398.902 113.72 399.328 113.642L421.308 109.362L396.75 133.281L402.866 132.037L425.789 117.149L426.125 118.841L429.643 119.882L439.144 117.944C439.457 117.887 439.704 117.708 439.872 117.473C439.884 117.473 439.884 117.462 439.895 117.462C439.907 117.44 439.917 117.429 439.917 117.417C440.096 117.193 440.175 116.924 440.119 116.667L440.086 116.521L439.19 112.095L438.966 111.009C438.91 110.751 438.743 110.539 438.496 110.393C438.484 110.382 438.463 110.382 438.451 110.37C438.451 110.359 438.44 110.359 438.428 110.359C438.181 110.201 437.879 110.147 437.577 110.201L435.986 110.526L445.15 104.577L465.843 100.287C466.795 100.141 468.699 99.2452 471.063 97.8113C472.038 97.2285 472.866 96.601 473.618 95.9185C473.82 95.7396 473.987 95.5709 474.156 95.4035C474.201 95.3473 474.245 95.3025 474.29 95.2578C474.403 95.1453 474.503 95.0342 474.593 94.9332C474.626 94.8885 474.671 94.8322 474.705 94.7875C474.795 94.6866 474.874 94.5856 474.941 94.4846C474.962 94.4514 474.985 94.4284 475.008 94.3952C475.086 94.2827 475.154 94.1817 475.21 94.0821C475.233 94.0373 475.255 93.9926 475.278 93.9479C475.3 93.9031 475.323 93.8584 475.346 93.8252C475.369 93.7689 475.379 93.7242 475.39 93.6795C475.402 93.6565 475.402 93.6347 475.413 93.6117C475.459 93.4175 475.448 93.2718 475.403 93.2053Z" fill="#6FCDDD"/>
<path d="M329.525 3.20346C315.151 3.03093 307.87 20.3657 318.039 30.5245C332.33 44.8011 358.985 62.3889 405.214 50.345C466.92 34.2716 376.868 3.77217 329.525 3.20346Z" fill="#BB99FF"/>
<path d="M550.051 170.544C543.268 158.344 525.296 159.563 520.054 172.501C509.7 198.056 498.042 242.362 537.747 249.523C576.962 256.593 566.571 200.253 550.051 170.544Z" fill="#BB99FF"/>
<path d="M33.0926 155.149C33.0926 155.149 49.488 214.513 22.3497 207.729C-4.78862 200.945 25.1766 135.925 33.0926 155.149Z" fill="#BB99FF"/>
<path d="M489.251 371.261C488.957 361.815 488.413 352.374 487.914 342.933C487.673 338.424 487.829 333.083 491.435 330.672C487.883 329.869 484.192 330.853 481.013 332.533C473.175 336.667 467.913 344.85 465.466 353.64C463.018 362.429 463.103 371.834 463.85 381.049C464.621 390.561 465.485 401.983 471.458 409.367C471.04 411.886 470.529 414.406 469.904 416.93C469.825 417.25 470.317 417.343 470.395 417.028C471.019 414.51 471.536 411.991 471.968 409.467C478.618 402.774 486.273 394.228 488.447 384.879C489.474 380.465 489.395 375.83 489.251 371.261Z" fill="#2D3553"/>
<path d="M473.439 413.829C481.342 411.351 490.871 407.864 496.3 401.625C498.833 398.715 500.581 395.217 502.253 391.745C505.714 384.568 508.975 377.297 512.271 370.046C513.844 366.581 516.054 362.646 519.833 362.217C517.353 360.263 514.064 359.592 510.906 359.636C503.125 359.741 495.788 363.859 490.426 369.5C485.066 375.142 481.457 382.208 478.444 389.387C475.287 396.909 471.422 405.943 473.439 413.829Z" fill="#175C99"/>
<path d="M505.139 372.076C501.292 373.2 497.795 375.146 494.25 376.972C494.002 377.1 494.177 377.498 494.426 377.37C497.936 375.563 501.398 373.619 505.208 372.507C505.472 372.428 505.407 371.997 505.139 372.076Z" fill="#2D3553"/>
<path d="M491.537 372.645C491.177 376.12 490.817 379.595 490.457 383.07C490.428 383.347 490.86 383.396 490.889 383.118C491.249 379.643 491.608 376.169 491.969 372.694C491.997 372.415 491.566 372.367 491.537 372.645Z" fill="#2D3553"/>
<path d="M494.079 391.39C490.687 392.656 487.475 394.27 484.347 396.088C484.108 396.227 484.282 396.626 484.523 396.485C487.652 394.668 490.863 393.054 494.255 391.787C494.517 391.689 494.341 391.291 494.079 391.39Z" fill="#2D3553"/>
<path d="M479.928 392.153C482.357 394.38 481.411 399.028 481.143 401.943C481.117 402.222 481.549 402.27 481.575 401.992C481.862 398.874 482.8 394.2 480.187 391.804C479.981 391.615 479.723 391.966 479.928 392.153Z" fill="#2D3553"/>
<path d="M506.004 365.064C497.288 370.453 492.214 379.378 487.901 388.382C482.688 399.265 477.295 409.487 469.187 418.534C469.001 418.743 469.351 419.001 469.536 418.794C476.755 410.737 482.075 401.734 486.673 391.99C491.431 381.909 496.46 371.473 506.276 365.404C506.512 365.256 506.239 364.918 506.004 365.064Z" fill="#2D3553"/>
<path d="M471.532 416.553C464.529 412.615 456.187 407.39 452.288 400.379C450.47 397.109 449.512 393.438 448.623 389.806C446.781 382.299 445.147 374.745 443.474 367.2C442.676 363.596 441.37 359.417 437.871 358.25C440.619 356.894 443.873 356.918 446.862 357.594C454.227 359.257 460.363 364.638 464.317 371.069C468.271 377.5 470.276 384.933 471.693 392.351C473.178 400.125 475.031 409.476 471.532 416.553Z" fill="#175C99"/>
<path d="M449.837 370.559C453.262 372.399 456.19 374.948 459.187 377.393C459.396 377.564 459.15 377.907 458.94 377.734C455.973 375.314 453.078 372.773 449.686 370.953C449.45 370.827 449.598 370.432 449.837 370.559Z" fill="#2D3553"/>
<path d="M462.631 373.832C462.275 377.203 461.918 380.573 461.561 383.943C461.533 384.212 461.114 384.171 461.142 383.902C461.499 380.532 461.855 377.162 462.212 373.792C462.24 373.522 462.659 373.563 462.631 373.832Z" fill="#2D3553"/>
<path d="M456.453 391.111C459.418 392.995 462.142 395.171 464.745 397.524C464.944 397.704 464.699 398.048 464.498 397.865C461.895 395.512 459.171 393.335 456.206 391.451C455.976 391.306 456.224 390.965 456.453 391.111Z" fill="#2D3553"/>
<path d="M469.73 394.679C466.977 396.305 466.94 400.907 466.609 403.727C466.577 403.997 466.158 403.956 466.19 403.686C466.544 400.67 466.593 396.045 469.554 394.297C469.788 394.158 469.962 394.542 469.73 394.679Z" fill="#2D3553"/>
<path d="M450.425 363.731C457.614 370.597 460.636 380.086 462.921 389.498C465.683 400.872 468.748 411.659 474.624 421.874C474.759 422.109 474.375 422.283 474.24 422.05C469.008 412.955 465.769 403.34 463.362 393.17C460.872 382.648 458.196 371.731 450.099 364.001C449.903 363.812 450.231 363.546 450.425 363.731Z" fill="#2D3553"/>
<path fill-rule="evenodd" clip-rule="evenodd" d="M489.115 410.484H457.293C453.686 410.484 450.895 413.645 451.34 417.223L455.475 450.496C455.858 453.576 458.475 455.888 461.578 455.888H484.827C487.93 455.888 490.548 453.576 490.931 450.496L495.067 417.223C495.513 413.643 492.721 410.484 489.115 410.484Z" fill="#FFC200"/>
<path opacity="0.3" fill-rule="evenodd" clip-rule="evenodd" d="M489.115 410.484H457.293C454.875 410.484 452.83 411.907 451.874 413.921H481.58C485.186 413.921 487.977 417.08 487.533 420.66L483.397 453.932C483.31 454.63 483.103 455.286 482.808 455.886H484.829C487.931 455.886 490.549 453.575 490.931 450.495L495.067 417.222C495.513 413.643 492.721 410.484 489.115 410.484Z" fill="#FF6700"/>
<path d="M134.82 331.359H94.5312V278.541C94.5312 275.467 97.0323 272.966 100.107 272.966H129.246C132.319 272.966 134.821 275.467 134.821 278.541V331.359H134.82ZM98.0279 327.861H131.321V278.541C131.321 277.396 130.389 276.464 129.243 276.464H100.105C98.9582 276.464 98.0266 277.396 98.0266 278.541L98.0279 327.861Z" fill="#2D3553"/>
<path fill-rule="evenodd" clip-rule="evenodd" d="M157.567 329.398V434.419C157.567 440.224 152.869 444.935 147.063 444.935H82.2982C76.4807 444.935 71.7815 440.224 71.7815 434.419V329.398C71.7815 323.592 76.4794 318.881 82.2982 318.881H147.062C152.868 318.881 157.567 323.592 157.567 329.398Z" fill="#EFB206"/>
<path fill-rule="evenodd" clip-rule="evenodd" d="M147.062 318.881H142.42C148.226 318.881 152.924 323.592 152.924 329.398V434.419C152.924 440.224 148.226 444.935 142.42 444.935H147.062C152.868 444.935 157.566 440.224 157.566 434.419V329.398C157.567 323.592 152.868 318.881 147.062 318.881Z" fill="#ED6F07"/>
<path fill-rule="evenodd" clip-rule="evenodd" d="M145.232 443.793V444.935H84.1296V443.793C84.1296 439.666 87.4754 436.307 91.6149 436.307H137.737C141.875 436.307 145.232 439.665 145.232 443.793Z" fill="#ED6F07"/>
<path fill-rule="evenodd" clip-rule="evenodd" d="M141.288 333.408C139.654 333.408 138.328 334.733 138.328 336.368V424.932C138.328 426.567 139.654 427.892 141.288 427.892C142.923 427.892 144.248 426.567 144.248 424.932V336.368C144.248 334.733 142.923 333.408 141.288 333.408Z" fill="#EFB206"/>
<path fill-rule="evenodd" clip-rule="evenodd" d="M141.288 333.408C139.654 333.408 138.328 334.733 138.328 336.368V424.932C138.328 426.567 139.654 427.892 141.288 427.892C142.923 427.892 144.248 426.567 144.248 424.932V336.368C144.248 334.733 142.923 333.408 141.288 333.408Z" fill="#EFB206"/>
<path fill-rule="evenodd" clip-rule="evenodd" d="M139.104 424.932V336.368C139.104 334.866 140.226 333.639 141.677 333.448C141.549 333.431 141.422 333.408 141.289 333.408C139.655 333.408 138.33 334.733 138.33 336.368V424.932C138.33 426.567 139.655 427.892 141.289 427.892C141.422 427.892 141.549 427.87 141.677 427.853C140.226 427.66 139.104 426.434 139.104 424.932Z" fill="#FFD261"/>
<path fill-rule="evenodd" clip-rule="evenodd" d="M141.288 333.408C140.942 333.408 140.613 333.478 140.305 333.588C141.454 333.995 142.281 335.08 142.281 336.368V424.932C142.281 426.22 141.453 427.304 140.305 427.712C140.615 427.822 140.942 427.892 141.288 427.892C142.923 427.892 144.248 426.567 144.248 424.932V336.368C144.248 334.733 142.923 333.408 141.288 333.408Z" fill="#ED6F07"/>
<path fill-rule="evenodd" clip-rule="evenodd" d="M123.569 333.408C121.934 333.408 120.609 334.733 120.609 336.368V424.932C120.609 426.567 121.934 427.892 123.569 427.892C125.203 427.892 126.529 426.567 126.529 424.932V336.368C126.529 334.733 125.203 333.408 123.569 333.408Z" fill="#EFB206"/>
<path fill-rule="evenodd" clip-rule="evenodd" d="M123.569 333.408C121.934 333.408 120.609 334.733 120.609 336.368V424.932C120.609 426.567 121.934 427.892 123.569 427.892C125.203 427.892 126.529 426.567 126.529 424.932V336.368C126.529 334.733 125.203 333.408 123.569 333.408Z" fill="#EFB206"/>
<path fill-rule="evenodd" clip-rule="evenodd" d="M121.385 424.932V336.368C121.385 334.866 122.507 333.639 123.957 333.448C123.829 333.431 123.703 333.408 123.57 333.408C121.935 333.408 120.61 334.733 120.61 336.368V424.932C120.61 426.567 121.935 427.892 123.57 427.892C123.703 427.892 123.829 427.87 123.957 427.853C122.507 427.66 121.385 426.434 121.385 424.932Z" fill="#FFD261"/>
<path fill-rule="evenodd" clip-rule="evenodd" d="M123.569 333.408C123.222 333.408 122.894 333.478 122.586 333.588C123.735 333.995 124.562 335.08 124.562 336.368V424.932C124.562 426.22 123.734 427.304 122.586 427.712C122.895 427.822 123.222 427.892 123.569 427.892C125.203 427.892 126.529 426.567 126.529 424.932V336.368C126.529 334.733 125.203 333.408 123.569 333.408Z" fill="#ED6F07"/>
<path fill-rule="evenodd" clip-rule="evenodd" d="M105.849 333.408C104.215 333.408 102.889 334.733 102.889 336.368V424.932C102.889 426.567 104.215 427.892 105.849 427.892C107.484 427.892 108.809 426.567 108.809 424.932V336.368C108.809 334.733 107.484 333.408 105.849 333.408Z" fill="#EFB206"/>
<path fill-rule="evenodd" clip-rule="evenodd" d="M105.849 333.408C104.215 333.408 102.889 334.733 102.889 336.368V424.932C102.889 426.567 104.215 427.892 105.849 427.892C107.484 427.892 108.809 426.567 108.809 424.932V336.368C108.809 334.733 107.484 333.408 105.849 333.408Z" fill="#EFB206"/>
<path fill-rule="evenodd" clip-rule="evenodd" d="M103.665 424.932V336.368C103.665 334.866 104.787 333.639 106.238 333.448C106.11 333.431 105.983 333.408 105.85 333.408C104.216 333.408 102.891 334.733 102.891 336.368V424.932C102.891 426.567 104.216 427.892 105.85 427.892C105.983 427.892 106.11 427.87 106.238 427.853C104.787 427.66 103.665 426.434 103.665 424.932Z" fill="#FFD261"/>
<path fill-rule="evenodd" clip-rule="evenodd" d="M105.849 333.408C105.503 333.408 105.174 333.478 104.866 333.588C106.015 333.995 106.842 335.08 106.842 336.368V424.932C106.842 426.22 106.014 427.304 104.866 427.712C105.176 427.822 105.503 427.892 105.849 427.892C107.484 427.892 108.809 426.567 108.809 424.932V336.368C108.809 334.733 107.484 333.408 105.849 333.408Z" fill="#ED6F07"/>
<path fill-rule="evenodd" clip-rule="evenodd" d="M88.1298 333.408C86.4952 333.408 85.1699 334.733 85.1699 336.368V424.932C85.1699 426.567 86.4952 427.892 88.1298 427.892C89.7643 427.892 91.0896 426.567 91.0896 424.932V336.368C91.0896 334.733 89.7643 333.408 88.1298 333.408Z" fill="#EFB206"/>
<path fill-rule="evenodd" clip-rule="evenodd" d="M88.1298 333.408C86.4952 333.408 85.1699 334.733 85.1699 336.368V424.932C85.1699 426.567 86.4952 427.892 88.1298 427.892C89.7643 427.892 91.0896 426.567 91.0896 424.932V336.368C91.0896 334.733 89.7643 333.408 88.1298 333.408Z" fill="#EFB206"/>
<path fill-rule="evenodd" clip-rule="evenodd" d="M85.9456 424.932V336.368C85.9456 334.866 87.0677 333.639 88.5182 333.448C88.3904 333.431 88.2639 333.408 88.131 333.408C86.4964 333.408 85.1711 334.733 85.1711 336.368V424.932C85.1711 426.567 86.4964 427.892 88.131 427.892C88.2639 427.892 88.3904 427.87 88.5182 427.853C87.0677 427.66 85.9456 426.434 85.9456 424.932Z" fill="#FFD261"/>
<path fill-rule="evenodd" clip-rule="evenodd" d="M88.1298 333.408C87.7834 333.408 87.455 333.478 87.147 333.588C88.2959 333.995 89.1228 335.08 89.1228 336.368V424.932C89.1228 426.22 88.2946 427.304 87.147 427.712C87.4562 427.822 87.7834 427.892 88.1298 427.892C89.7643 427.892 91.0896 426.567 91.0896 424.932V336.368C91.0896 334.733 89.7643 333.408 88.1298 333.408Z" fill="#ED6F07"/>
<path d="M138.446 314.827H90.7368V318.954H138.446V314.827Z" fill="#2D3553"/>
<path fill-rule="evenodd" clip-rule="evenodd" d="M147.145 444.993H135.609V449.861C135.609 453.047 138.191 455.628 141.376 455.628C144.562 455.628 147.144 453.045 147.144 449.861V444.993H147.145Z" fill="#2D3553"/>
<path fill-rule="evenodd" clip-rule="evenodd" d="M93.2467 444.993H81.7102V449.861C81.7102 453.047 84.293 455.628 87.4778 455.628C90.6639 455.628 93.2454 453.045 93.2454 449.861V444.993H93.2467Z" fill="#2D3553"/>
<path fill-rule="evenodd" clip-rule="evenodd" d="M250.616 287.84L249.673 288.283V288.131C249.992 288.034 250.297 287.937 250.616 287.84Z" fill="#175C99"/>
<path fill-rule="evenodd" clip-rule="evenodd" d="M247.579 218.816C249.541 217.258 254.792 213.042 259.576 208.918L247.579 218.816Z" fill="#F7AF79"/>
<path fill-rule="evenodd" clip-rule="evenodd" d="M188.315 281.475C183.114 336.37 191.997 444.05 191.997 444.05H206.414C206.231 421.236 219.024 306.836 219.067 307.396C222.477 352.109 230.285 414.45 231.414 444.28L246.023 444.05C246.023 444.05 253.337 336.37 248.135 281.475H188.315Z" fill="#175C99"/>
<path fill-rule="evenodd" clip-rule="evenodd" d="M231.392 444.05V455.63H260.821C263.915 455.63 264.968 451.498 262.246 450.025C258.407 447.949 248.947 445.699 245.528 444.05H231.392Z" fill="#2D3553"/>
<path fill-rule="evenodd" clip-rule="evenodd" d="M206.296 444.05V455.63H176.868C173.774 455.63 172.722 451.498 175.443 450.025C179.282 447.949 188.742 445.699 192.16 444.05H206.296Z" fill="#2D3553"/>
<path d="M246.025 444.056L242.171 444.111C244.445 411.813 242.351 317.793 241.657 290.224C244.028 289.698 246.386 289.101 248.702 288.421C252.752 344.96 246.025 444.056 246.025 444.056Z" fill="#0D4C7C"/>
<path fill-rule="evenodd" clip-rule="evenodd" d="M202.755 444.05H206.413C206.23 421.236 219.023 306.836 219.066 307.396C219.066 307.396 215.245 313.375 214.482 316.425C213.802 319.144 204.935 419.201 202.755 444.05Z" fill="#0D4C7C"/>
<path fill-rule="evenodd" clip-rule="evenodd" d="M168.147 226.107L157.717 258.009L111.705 270.432C111.705 270.432 107.718 275.646 107.104 279.635C106.491 283.622 118.761 275.341 122.135 274.421C124.902 273.665 155.732 272.189 166.731 271.682C169.083 271.573 171.137 270.073 171.961 267.866L184.711 233.776L168.147 226.107Z" fill="#F7AF79"/>
<path fill-rule="evenodd" clip-rule="evenodd" d="M249.673 288.284L250.622 287.84C230.835 294.01 208.747 294.843 188.747 289.405L185.631 288.53L189.543 224.136C189.551 224.004 189.36 223.975 189.329 224.104L184.251 241.138L161.245 231.781C161.245 231.781 171.23 195.677 173.976 193.286C188.239 180.862 211.274 180.173 211.274 180.173H222.201L224.178 180.693C224.178 180.693 247.561 183.142 255.263 188.071C262.932 192.979 272.047 201.299 272.047 201.299L246.655 219.476L249.673 288.284Z" fill="#3DC3F2"/>
<path d="M204.876 180.799C202.897 181.079 200.568 181.479 198.028 182.06H234.066C230.053 181.401 226.682 180.982 225.117 180.799H204.876Z" fill="#175C99"/>
<path d="M173.976 193.286C173.884 193.365 173.784 193.485 173.677 193.637H262.965C262.432 193.218 261.89 192.797 261.341 192.377H175.07C174.7 192.675 174.333 192.974 173.976 193.286Z" fill="#175C99"/>
<path d="M169.163 205.216H266.573L268.333 203.956H169.578C169.441 204.37 169.302 204.79 169.163 205.216Z" fill="#175C99"/>
<path d="M165.566 216.794H250.399L252.159 215.534H165.943C165.817 215.956 165.692 216.376 165.566 216.794Z" fill="#175C99"/>
<path d="M188.432 227.113H162.56C162.434 227.559 162.314 227.981 162.203 228.373H188.057L188.432 227.113Z" fill="#175C99"/>
<path d="M189.286 228.373H247.045L246.99 227.113H189.363L189.286 228.373Z" fill="#175C99"/>
<path d="M178.235 238.692L181.332 239.95H184.605L184.98 238.692H178.235Z" fill="#175C99"/>
<path d="M188.582 239.95H247.553L247.498 238.692H188.658L188.582 239.95Z" fill="#175C99"/>
<path d="M187.879 251.529H248.061L248.005 250.27H187.956L187.879 251.529Z" fill="#175C99"/>
<path d="M187.176 263.108H248.569L248.514 261.848H187.253L187.176 263.108Z" fill="#175C99"/>
<path d="M186.472 274.686H249.076L249.021 273.426H186.549L186.472 274.686Z" fill="#175C99"/>
<path d="M185.769 286.265H249.585L249.528 285.005H185.846L185.769 286.265Z" fill="#175C99"/>
<path fill-rule="evenodd" clip-rule="evenodd" d="M199.106 150.504C199.106 150.504 197.859 142.445 201.845 135.687C205.83 128.929 214.066 126.928 218.583 129.681C218.583 129.681 224.758 127.253 230.338 131.257C235.917 135.26 240.822 156.57 226.023 160.174L203.971 160.464C203.971 160.464 200.471 155.769 199.106 150.504Z" fill="#2D3553"/>
<path fill-rule="evenodd" clip-rule="evenodd" d="M224.32 180.932C222.233 182.599 217.185 186.153 217.185 186.153C217.185 186.153 212.051 182.635 209.928 180.946L209.912 168.752H224.32V180.932Z" fill="#F7AF79"/>
<path fill-rule="evenodd" clip-rule="evenodd" d="M221.213 168.752V183.266C222.384 182.414 223.552 181.546 224.318 180.932V168.752H221.213Z" fill="#EA8D4E"/>
<path fill-rule="evenodd" clip-rule="evenodd" d="M231.215 149.669V159.85C231.215 163.633 229.661 167.244 226.914 169.834C226.466 170.232 226.016 170.664 225.549 171.094C220.799 175.567 213.372 175.567 208.622 171.094L207.275 169.834C204.52 167.257 202.957 163.651 202.957 159.879V148.271C202.957 148.271 214.389 148.21 220.001 141.518C220.001 141.518 224.097 148.567 231.215 149.669Z" fill="#F7AF79"/>
<path fill-rule="evenodd" clip-rule="evenodd" d="M224.323 172.087V174.32C220.038 177.427 214.214 177.44 209.915 174.362V172.144C214.213 175.236 220.052 175.222 224.323 172.087Z" fill="#EA8D4E"/>
<path d="M231.652 159.53C234.025 159.53 235.948 157.606 235.948 155.233C235.948 152.86 234.025 150.936 231.652 150.936C229.279 150.936 227.355 152.86 227.355 155.233C227.355 157.606 229.279 159.53 231.652 159.53Z" fill="#F7AF79"/>
<path d="M203.21 159.53C205.583 159.53 207.506 157.606 207.506 155.233C207.506 152.86 205.583 150.936 203.21 150.936C200.837 150.936 198.913 152.86 198.913 155.233C198.913 157.606 200.837 159.53 203.21 159.53Z" fill="#F7AF79"/>
<path fill-rule="evenodd" clip-rule="evenodd" d="M228.901 159.544C228.901 162.707 227.602 165.725 225.305 167.893C224.929 168.225 224.554 168.587 224.164 168.947C220.192 172.688 213.981 172.688 210.009 168.947L208.882 167.893C206.579 165.737 205.271 162.722 205.271 159.568L202.958 148.271V159.879C202.958 163.651 204.521 167.255 207.276 169.834L208.623 171.094C213.374 175.567 220.8 175.567 225.55 171.094C226.017 170.662 226.466 170.23 226.915 169.834C229.662 167.244 231.216 163.633 231.216 159.85V149.669C230.402 149.542 228.901 159.544 228.901 159.544Z" fill="#2D3553"/>
<path fill-rule="evenodd" clip-rule="evenodd" d="M216.707 161.82C211.835 161.82 207.729 164.827 206.42 168.945C206.694 169.251 206.975 169.551 207.276 169.833L208.623 171.093C213.374 175.566 220.8 175.566 225.551 171.093C226.017 170.661 226.466 170.229 226.915 169.833C227.005 169.749 227.082 169.655 227.168 169.568C226.092 165.135 221.821 161.82 216.707 161.82Z" fill="#2D3553"/>
<path fill-rule="evenodd" clip-rule="evenodd" d="M221.144 167.412C221.144 165.926 219.12 164.722 216.622 164.722C214.125 164.722 212.101 165.927 212.101 167.412C212.101 168.899 214.125 169.322 216.622 169.322C219.12 169.322 221.144 168.897 221.144 167.412Z" fill="#F7AF79"/>
<path fill-rule="evenodd" clip-rule="evenodd" d="M250.622 287.84C250.305 287.938 249.983 288.024 249.665 288.12L249.673 288.284L250.622 287.84Z" fill="#34BF73"/>
<path opacity="0.59" fill-rule="evenodd" clip-rule="evenodd" d="M247.579 218.816L246.654 219.476L249.669 288.117C247.03 288.914 244.363 289.611 241.66 290.215C241.651 289.757 240.981 220.007 241.587 218.184C242.081 216.698 254.801 211.008 259.576 208.918L247.579 218.816Z" fill="#24AACE"/>
<path d="M313.868 440.37C314.327 439.743 314.612 439.223 314.603 438.865C314.442 432.125 258.76 333.405 258.76 333.405L279.5 319.166C279.5 319.166 312.413 401.008 324.63 434.35C321.73 437.191 310.485 447.94 313.868 440.37Z" fill="#F7AF79"/>
<path d="M323.922 446.755L304.648 454.631C304.029 454.907 303.353 454.167 303.567 453.463C305.189 448.149 311.58 443.501 313.869 440.369C310.486 447.939 321.732 437.189 324.631 434.348C325.305 436.186 325.925 437.899 326.475 439.451C327.546 442.471 326.436 445.632 323.922 446.755Z" fill="#175C99"/>
<path fill-rule="evenodd" clip-rule="evenodd" d="M291.569 392.703C292.254 392.458 292.685 392.233 292.685 392.055C292.685 391.485 295.27 375.637 297.241 363.642C295.702 359.758 294.203 355.983 292.771 352.377L284.404 354.938L282.754 376.544C285.678 381.87 288.659 387.331 291.569 392.703Z" fill="#EA9C68"/>
<path d="M333.184 169.471C333.184 169.471 320.19 178.011 298.414 171.332C276.64 164.653 256.221 164.09 255.391 176.496C254.56 188.903 301.355 199.865 322.483 187.105C344.324 173.916 338.38 168.16 333.184 169.471Z" fill="#2D3553"/>
<path d="M291.083 445.574C291.757 445.188 292.229 444.83 292.367 444.499C294.969 438.279 284.394 325.435 284.394 325.435L309.137 320.891C309.137 320.891 305.808 409.041 303.363 444.466C299.558 445.878 284.906 451.105 291.083 445.574Z" fill="#F7AF79"/>
<path d="M297.657 455.504L275.646 455.886C274.967 455.886 274.651 454.934 275.134 454.38C278.783 450.189 287.715 447.5 291.083 445.574C284.906 451.105 299.558 445.878 303.364 444.466C303.23 446.419 303.097 448.235 302.967 449.877C302.714 453.071 300.411 455.504 297.657 455.504Z" fill="#175C99"/>
<path fill-rule="evenodd" clip-rule="evenodd" d="M297.195 157.925C297.195 157.925 290.245 152.738 281.872 157.527C265.807 166.715 279.322 182.474 271.904 191.1C268.845 194.657 293.414 205.421 312.97 193.458C313.966 192.848 308.714 191.905 309.634 184.485C310.742 175.542 314.736 148.794 297.195 157.925Z" fill="#2D3553"/>
<path fill-rule="evenodd" clip-rule="evenodd" d="M351.959 291.21C348.443 279.758 334.96 251.443 335.318 252.866L328.343 218.295L328.12 217.214L327.954 217.297C326.082 212.457 324.169 208.629 322.351 206.924C318.301 203.111 311.576 201.238 305.793 200.323C303.769 200.004 301.855 199.797 300.219 199.658C297.085 199.408 294.964 199.435 294.964 199.435L280.958 200.614C280.958 200.614 280.057 200.545 278.6 200.585C277.228 200.614 275.369 200.738 273.344 201.112C269.988 201.722 266.174 203.012 263.276 205.646C256.758 211.581 246.774 219.458 246.774 219.458L247.426 236.542C247.426 236.542 266.54 223.183 266.151 224.112C263.738 227.691 259.213 235.224 264.83 244.266C271.833 255.527 265.439 280.197 265.135 281.264C265.121 281.319 265.232 281.39 265.482 281.43C267.631 281.951 279.164 285.777 290.998 285.767C300.623 285.759 310.549 282.066 314.947 281.264C315.473 281.167 315.931 281.07 316.305 280.959C314.903 279.271 309.85 266.4 307.859 261.109C307.152 259.232 306.919 257.221 307.185 255.233C308.228 247.431 312.676 232.953 313.083 226.643L321.826 257.24C321.826 257.24 340.115 279.901 346.37 295.423C347.547 298.342 348.117 306.378 349.366 307.419C350.614 308.459 349.989 302.218 350.614 302.842C351.238 303.466 356.66 313.659 358.324 311.995C359.045 311.276 355.312 302.134 351.959 291.21Z" fill="#F7AF79"/>
<path fill-rule="evenodd" clip-rule="evenodd" d="M323.338 319.22C322.13 293.799 316.304 280.937 316.304 280.937H316.29C314.869 279.181 309.843 266.383 307.859 261.11C307.152 259.233 306.919 257.223 307.185 255.234C308.228 247.432 312.676 232.955 313.083 226.644C312.886 226.644 309.345 209.047 315.612 202.895C312.454 201.641 308.987 200.827 305.795 200.321C303.77 200.001 301.856 199.794 300.22 199.655C297.086 199.406 294.965 199.433 294.965 199.433L280.959 200.611C280.959 200.611 280.058 200.542 278.601 200.583C277.271 200.61 275.479 200.732 273.527 201.081C272.775 206.734 270.85 216.752 266.152 224.111C265.823 224.627 265.499 225.127 265.176 225.628C262.77 229.59 259.913 236.35 264.831 244.265C271.834 255.525 265.441 280.196 265.136 281.263C265.13 281.29 265.156 281.319 265.208 281.347C264.678 282.921 249.289 328.996 257.104 355.773C258.945 362.079 323.054 356.974 323.054 356.974C323.054 356.974 324.433 342.265 323.338 319.22Z" fill="#FF7300"/>
<path fill-rule="evenodd" clip-rule="evenodd" d="M283.163 178.521C283.169 176.406 281.459 174.686 279.344 174.679C277.229 174.673 275.509 176.383 275.502 178.498C275.496 180.613 277.206 182.333 279.321 182.339C281.438 182.346 283.156 180.636 283.163 178.521Z" fill="#F7AF79"/>
<path fill-rule="evenodd" clip-rule="evenodd" d="M309.201 180.082C309.207 177.967 307.497 176.247 305.382 176.241C303.267 176.234 301.547 177.944 301.54 180.059C301.534 182.175 303.244 183.895 305.359 183.901C307.474 183.906 309.194 182.198 309.201 180.082Z" fill="#F7AF79"/>
<path fill-rule="evenodd" clip-rule="evenodd" d="M298.5 200.136C298.383 200.247 298.245 200.391 298.089 200.561C294.733 204.255 288.952 203.968 285.719 200.168L285.668 200.109L286.101 189.554L298.947 189.592L298.5 200.136Z" fill="#F7AF79"/>
<path fill-rule="evenodd" clip-rule="evenodd" d="M298.704 195.273C294.86 197.987 289.68 197.954 285.875 195.171L285.979 192.496C289.769 195.321 294.962 195.369 298.821 192.654L298.704 195.273Z" fill="#EA8D4E"/>
<path fill-rule="evenodd" clip-rule="evenodd" d="M294.956 203.379C296.306 202.161 297.741 200.858 298.5 200.136L298.947 189.592L295.783 189.583L294.956 203.379Z" fill="#EA8D4E"/>
<path fill-rule="evenodd" clip-rule="evenodd" d="M305.147 172.597L305.12 181.675C305.11 185.048 303.714 188.262 301.259 190.565C300.858 190.917 300.457 191.301 300.04 191.685C295.793 195.661 289.172 195.641 284.948 191.641L283.751 190.514C281.302 188.208 279.918 184.99 279.927 181.626L279.957 171.277C279.957 171.277 291.383 172.092 296.405 166.141C296.405 166.141 298.359 172.236 305.147 172.597Z" fill="#F7AF79"/>
<path fill-rule="evenodd" clip-rule="evenodd" d="M323.053 356.977C323.053 356.977 324.433 342.265 323.339 319.22C322.131 293.799 316.305 280.937 316.305 280.937H316.291C314.87 279.181 309.845 266.383 307.86 261.11C307.153 259.233 306.921 257.223 307.186 255.234C308.224 247.468 312.633 233.091 313.075 226.736C312.21 227.674 302.951 238.148 302.731 257.012C302.501 276.796 312.164 294.511 312.624 320.278C312.902 335.777 309.765 349.521 307.222 358.02C316.35 357.51 323.053 356.977 323.053 356.977Z" fill="#FF4800"/>
<path d="M333.189 169.473C333.189 169.473 320.188 178.013 298.414 171.336C280.182 165.732 262.885 164.426 257.274 171.448L257.261 171.45C257.249 171.438 257.236 171.438 257.236 171.438C257.236 171.438 263.885 163.14 272.586 163.626C281.299 164.11 277.524 149.71 293.635 149.079C309.721 148.451 311.005 157.284 312.982 162.841C314.975 168.408 333.189 169.473 333.189 169.473Z" fill="white"/>
<path d="M316.185 165.844C314.598 165.03 313.417 164.042 312.99 162.846C312.603 161.762 312.242 160.553 311.794 159.315C305.92 156.942 294.212 153.968 279.069 158.983C277.906 161.015 276.771 162.73 274.806 163.368L274.769 163.417C274.769 163.417 297.493 156.132 316.191 165.953L316.185 165.844Z" fill="#2D3553"/>
<path d="M311.792 159.314C309.034 158.198 304.99 156.953 299.906 156.462C298.505 153.276 296.309 150.717 294.616 149.055C306.758 148.87 309.988 154.335 311.792 159.314Z" fill="#D6D2D0"/>
<path d="M333.194 169.47C311.873 177.189 303.043 163.969 301.553 161.38C306.397 162.06 311.42 163.444 316.192 165.95L316.181 165.843C321.978 168.813 333.194 169.47 333.194 169.47Z" fill="#D6D2D0"/>
<path d="M312.479 402.439C310.578 410.206 308.513 418.511 307.417 422.685C306.487 420.869 305.489 418.927 304.449 416.902C305.004 407.972 305.753 397.682 306.585 387.309C308.582 392.427 310.564 397.516 312.479 402.439Z" fill="#EA9C68"/>
<path fill-rule="evenodd" clip-rule="evenodd" d="M184.807 261.119C184.938 262.819 186.471 264.076 188.157 263.839C190.229 263.547 192.599 262.906 192.771 261.499C193.082 258.966 193.339 251.252 191.346 250.866C190.233 250.65 188.276 250.773 186.538 251.189C185.12 251.529 184.164 252.856 184.277 254.31L184.807 261.119Z" fill="#F7AF79"/>
<path fill-rule="evenodd" clip-rule="evenodd" d="M272.975 358.839C273.426 359.652 273.885 360.479 274.348 361.316C278.894 361.547 288.009 361.941 296.547 361.892C296.106 360.779 295.669 359.679 295.236 358.587C287.635 358.877 279.659 359.034 272.975 358.839Z" fill="#EA9C68"/>
<path fill-rule="evenodd" clip-rule="evenodd" d="M307.65 357.992C301.584 358.335 294.401 358.67 287.376 358.83C287.461 359.811 287.546 360.804 287.631 361.808C294.378 361.959 301.915 361.957 307.503 361.479C307.553 360.302 307.602 359.139 307.65 357.992Z" fill="#EA9C68"/>
<path fill-rule="evenodd" clip-rule="evenodd" d="M309.869 260.677C309.335 259.059 307.546 258.204 305.965 258.838C304.024 259.616 301.877 260.806 302.045 262.214C302.349 264.749 303.946 272.299 305.973 272.198C307.105 272.142 308.975 271.555 310.563 270.735C311.859 270.065 312.47 268.548 312.012 267.164L309.869 260.677Z" fill="#F7AF79"/>
<path fill-rule="evenodd" clip-rule="evenodd" d="M399.577 317.663H378.299C372.224 317.663 367.254 322.633 367.254 328.709V364.035C367.254 370.111 372.224 375.081 378.299 375.081H399.577C405.652 375.081 410.623 370.111 410.623 364.035V328.709C410.623 322.633 405.651 317.663 399.577 317.663Z" fill="#FFC200"/>
<path fill-rule="evenodd" clip-rule="evenodd" d="M421.493 452.39L409.318 447.449L398.942 406.729L411.613 404.094C410.574 407.541 417.581 446.062 417.581 446.062C417.581 446.062 419.065 451.521 421.493 452.39Z" fill="#F7AF79"/>
<path fill-rule="evenodd" clip-rule="evenodd" d="M414.942 430.852C416.318 439.111 417.581 446.062 417.581 446.062C417.581 446.062 419.067 451.521 421.495 452.391L409.319 447.45L405.09 430.853H414.942V430.852Z" fill="#175C99"/>
<path fill-rule="evenodd" clip-rule="evenodd" d="M360.153 452.39L372.329 447.449L382.705 406.729L370.033 404.094C371.072 407.541 364.065 446.062 364.065 446.062C364.065 446.062 362.581 451.521 360.153 452.39Z" fill="#F7AF79"/>
<path fill-rule="evenodd" clip-rule="evenodd" d="M413.06 418.983L401.826 418.047L400.976 414.714L412.336 413.856C412.55 415.463 412.795 417.189 413.06 418.983Z" fill="#EA9C68"/>
<path fill-rule="evenodd" clip-rule="evenodd" d="M380.618 414.919L379.912 417.691L368.688 418.235C368.909 416.79 369.104 415.387 369.283 414.069L380.618 414.919Z" fill="#EA9C68"/>
<path fill-rule="evenodd" clip-rule="evenodd" d="M366.704 430.852C365.329 439.111 364.065 446.062 364.065 446.062C364.065 446.062 362.581 451.521 360.152 452.391L372.327 447.45L376.556 430.853H366.704V430.852Z" fill="#175C99"/>
<path fill-rule="evenodd" clip-rule="evenodd" d="M365.089 340.713C365.089 340.713 352.754 343.811 349.967 342.62C347.181 341.429 351.332 310.407 351.332 310.407C351.332 310.407 351.57 303.634 351.57 302.938C351.579 301.151 351.772 299.4 352.44 298.86C353.961 297.65 356.07 309.024 356.07 309.024L356.079 310.261L356.088 310.929L356.271 331.825L362.887 330.743L365.089 340.713Z" fill="#F7AF79"/>
<path fill-rule="evenodd" clip-rule="evenodd" d="M406.752 368.011H372.091L362.175 413.53L384.975 415.247L389.725 385.738L393.869 415.247L416.669 413.53L406.752 368.011Z" fill="#175C99"/>
<path fill-rule="evenodd" clip-rule="evenodd" d="M407.263 368.013V367.941C407.281 367.932 407.309 367.923 407.326 367.914L407.263 368.013Z" fill="white"/>
<path fill-rule="evenodd" clip-rule="evenodd" d="M372.529 446.654L371.455 452.069C371.014 454.289 369.066 455.888 366.804 455.888H352.958C351.324 455.888 350.617 453.817 351.911 452.819C356.372 449.381 364.061 446.059 364.061 446.059C364.061 446.059 361.67 449.944 372.529 446.654Z" fill="#3DC3F2"/>
<path d="M410.886 346.943L416.953 356.959C416.953 356.959 406.436 372.094 406.013 373.788C405.59 375.481 405.604 381.272 406.766 381.594C408.459 382.064 409.681 376.327 409.681 376.327L426.656 358.719C427.476 357.763 427.66 356.415 427.127 355.273L421.185 342.57L410.886 346.943Z" fill="#F7AF79"/>
<path fill-rule="evenodd" clip-rule="evenodd" d="M371.517 367.909C371.517 367.909 385.932 377.944 407.327 367.909L407.263 368.01L406.22 344.749L409.412 350.678L424.853 343.839C424.853 343.839 414.652 328.43 410.699 325.541C406.746 322.652 395.045 321.943 395.045 321.943L383.759 321.866C383.759 321.866 378.618 322.165 371.568 323.897C369.109 324.5 357.113 330.305 357.113 330.305L360.914 346.877L372.432 344.46L371.231 368.01L371.517 367.909Z" fill="#3DC3F2"/>
<path fill-rule="evenodd" clip-rule="evenodd" d="M394.584 322.227C393.007 323.487 389.192 326.172 389.192 326.172C389.192 326.172 385.312 323.512 383.707 322.237L383.694 313.021H394.584V322.227Z" fill="#F7AF79"/>
<path fill-rule="evenodd" clip-rule="evenodd" d="M394.581 317.451V322.231C393.671 322.962 391.996 324.169 390.755 325.063V321.074C388.297 321.346 385.737 320.794 383.705 319.391L383.696 316.942C383.713 316.959 383.731 316.977 383.756 316.977C383.91 317.087 384.071 317.189 384.241 317.283C384.292 317.326 384.343 317.36 384.394 317.369C384.599 317.497 384.802 317.607 385.015 317.701C385.015 317.71 385.024 317.718 385.041 317.71C385.253 317.82 385.466 317.906 385.687 317.991C385.739 318.026 385.799 318.043 385.857 318.059C386.027 318.119 386.197 318.178 386.367 318.229C386.444 318.264 386.528 318.289 386.614 318.297C386.818 318.357 387.022 318.407 387.226 318.45C387.643 318.535 388.068 318.604 388.493 318.646C390.585 318.862 392.745 318.463 394.581 317.451Z" fill="#EA8D4E"/>
<path fill-rule="evenodd" clip-rule="evenodd" d="M375.964 304.296C375.964 304.296 375.023 298.205 378.034 293.099C381.046 287.992 387.27 286.479 390.683 288.559C390.683 288.559 395.35 286.724 399.568 289.75C403.784 292.776 407.493 308.882 396.306 311.607L379.64 311.826C379.641 311.824 376.997 308.275 375.964 304.296Z" fill="#2D3553"/>
<path fill-rule="evenodd" clip-rule="evenodd" d="M400.232 302.751V309.307C400.232 311.743 399.058 314.068 396.982 315.736C396.642 315.991 396.304 316.27 395.951 316.547C392.361 319.428 386.748 319.428 383.158 316.547L382.14 315.736C380.058 314.076 378.876 311.755 378.876 309.325V301.852C378.876 301.852 387.515 301.813 391.758 297.504C391.758 297.504 394.852 302.042 400.232 302.751Z" fill="#F7AF79"/>
<path fill-rule="evenodd" clip-rule="evenodd" d="M403.809 308.069C403.809 306.276 402.356 304.822 400.562 304.822C398.768 304.822 397.315 306.275 397.315 308.069C397.315 309.863 398.768 311.315 400.562 311.315C402.356 311.315 403.809 309.862 403.809 308.069Z" fill="#F7AF79"/>
<path fill-rule="evenodd" clip-rule="evenodd" d="M382.312 307.87C382.312 306.077 380.859 304.622 379.066 304.622C377.273 304.622 375.819 306.077 375.819 307.87C375.819 309.663 377.273 311.117 379.066 311.117C380.859 311.116 382.312 309.663 382.312 307.87Z" fill="#F7AF79"/>
<path d="M410.272 298.093C410.361 295.375 401.236 292.874 389.893 292.507C378.55 292.14 369.284 294.047 369.196 296.765C369.108 299.483 378.192 303.215 389.536 303.582C400.879 303.95 410.186 300.811 410.272 298.093Z" fill="#FFC200"/>
<path d="M403.807 293.818C403.761 300.804 375.416 300.614 375.463 293.629C375.509 286.643 381.901 279.801 389.727 279.853C397.554 279.906 403.853 286.833 403.807 293.818Z" fill="#FFC200"/>
<path d="M376.148 289.809C375.713 291.013 375.471 292.296 375.462 293.629C375.416 300.615 403.76 300.804 403.806 293.818C403.815 292.485 403.591 291.198 403.171 289.989C399.31 294.641 379.948 294.512 376.148 289.809Z" fill="#2D3553"/>
<path opacity="0.3" d="M390.86 279.91C393.853 282.558 395.73 286.435 395.701 290.745C395.68 293.755 394.733 296.543 393.131 298.839C398.866 298.39 403.787 296.726 403.806 293.818C403.85 287.174 398.152 280.581 390.86 279.91Z" fill="#FF6700"/>
<path fill-rule="evenodd" clip-rule="evenodd" d="M409.117 446.654L410.192 452.069C410.633 454.289 412.581 455.888 414.843 455.888H428.688C430.323 455.888 431.03 453.817 429.735 452.819C425.275 449.381 417.584 446.059 417.584 446.059C417.584 446.059 419.976 449.944 409.117 446.654Z" fill="#3DC3F2"/>
<path fill-rule="evenodd" clip-rule="evenodd" d="M380.618 414.919L379.912 417.691L368.688 418.235C368.909 416.79 369.104 415.387 369.283 414.069L380.618 414.919Z" fill="#EA9C68"/>
<path fill-rule="evenodd" clip-rule="evenodd" d="M401.826 418.049L413.06 418.984C412.797 417.19 412.55 415.463 412.336 413.857L400.976 414.716L401.826 418.049Z" fill="#EA9C68"/>
<path fill-rule="evenodd" clip-rule="evenodd" d="M397.499 322.156C399.385 331.311 402.961 360.37 406.932 361.133C406.951 361.137 406.219 344.749 406.219 344.749L407.019 323.891C403.888 322.937 399.982 322.413 397.499 322.156Z" fill="#175C99"/>
<path fill-rule="evenodd" clip-rule="evenodd" d="M381.111 322.156C379.225 331.311 375.649 360.37 371.678 361.133C371.659 361.137 372.391 344.749 372.391 344.749L371.591 323.891C374.722 322.937 378.628 322.413 381.111 322.156Z" fill="#175C99"/>
<path fill-rule="evenodd" clip-rule="evenodd" d="M356.161 315.001C354.452 312.902 352.466 308.768 351.548 306.845C351.585 305.764 351.611 304.809 351.624 304.395C352.742 306.242 354.59 309.283 356.135 310.968V312.224L356.161 315.001Z" fill="#EA8D4E"/>
</svg>
