<svg width="55" height="63" viewBox="0 0 55 63" fill="none" xmlns="http://www.w3.org/2000/svg">
<g clip-path="url(#clip0_96_330)">
<path d="M7.70738 3.7665C8.07557 3.39831 8.19222 3.40452 8.47208 3.54238C8.75177 3.68023 9.27479 4.21894 9.6239 5.41291C10.264 7.60119 10.2753 11.7841 8.37828 18.0751C7.08514 18.046 5.85711 18.3123 4.72932 18.7696C5.73731 15.2733 6.00834 12.2615 6.20842 9.83797C6.46389 6.74699 6.69096 4.78274 7.70738 3.7665ZM18.3966 2.73992C18.7344 2.40332 18.8866 2.40263 18.9644 2.41159C19.0422 2.4204 19.2192 2.48955 19.4603 2.82166C19.9424 3.48585 20.4198 5.04684 20.4276 6.9709C20.4427 10.8191 18.7918 16.082 13.8142 19.722C13.5967 19.881 13.3421 20.0852 13.2262 20.521C13.1105 20.9568 13.3349 21.4659 13.5435 21.6816C13.9617 22.1132 14.2833 22.157 14.6279 22.2847C15.3171 22.5404 16.0427 22.9306 16.0283 22.9118C17.1794 24.413 17.081 26.5054 16.2261 28.8365C15.3714 31.1677 13.7737 33.5877 12.3249 35.3429C11.3215 36.5584 10.006 37.8377 8.58709 38.8353C8.48449 38.4579 8.33076 38.1059 8.1269 37.79C7.56185 36.9133 6.66892 36.3506 5.70329 36.0899C4.15544 35.672 2.3625 35.9509 0.825175 36.9323C0.542546 35.8294 0.304603 34.5673 0.15625 33.2539C-0.292054 29.2842 0.19845 24.9111 1.97645 23.0573C3.74763 21.2106 6.41019 19.6939 9.18976 20.1294C9.65913 20.2028 10.0475 20.0042 10.2927 19.8149C10.538 19.6259 10.7101 19.4151 10.8792 19.1781C11.2175 18.7046 11.5269 18.111 11.8591 17.398C12.5235 15.972 13.2499 14.0821 14.0117 12.1034C14.7734 10.1249 15.568 8.0616 16.3366 6.34191C17.1052 4.62223 17.9109 3.22351 18.3966 2.73992ZM4.03282 28.0488C3.66166 28.4423 3.48008 28.9095 3.48793 29.4503C3.49585 29.9913 3.69108 30.4529 4.07355 30.8354C4.46409 31.2259 4.93552 31.4212 5.48777 31.4212C6.04009 31.4212 6.51145 31.2259 6.90198 30.8354C7.29252 30.4449 7.48782 29.9735 7.48775 29.4212C7.48782 28.8689 7.29252 28.3975 6.90198 28.007C6.50346 27.6083 6.02227 27.4131 5.45856 27.4213C4.89486 27.4295 4.41968 27.6386 4.03282 28.0488ZM40.0564 0.318187C40.128 0.247618 40.2568 0.161974 40.5211 0.0727368C41.0829 -0.11744 41.8161 0.0527426 42.7493 0.730328C43.6825 1.40768 44.6909 2.54887 45.5462 3.8609C46.4015 5.17324 47.1131 6.65719 47.5365 7.99302C47.7843 8.77528 47.9061 9.49156 47.9433 10.0845C45.9755 8.99464 43.7205 8.32651 41.2137 8.2511C41.3122 7.79231 41.3503 7.33278 41.3303 6.88898C41.2713 5.5837 40.8645 4.37189 40.5145 3.30699C40.1647 2.24214 39.8928 1.30291 39.8989 0.810475C39.9017 0.564401 39.9436 0.462791 40.0005 0.38356C40.0147 0.363761 40.0321 0.341946 40.0564 0.318187ZM1.5571 39.1817C2.68713 38.2513 4.1362 37.9973 5.11717 38.2619C5.64573 38.4046 6.01541 38.6662 6.23617 39.0087C6.39965 39.2624 6.50904 39.5839 6.49094 40.0427C5.03982 40.687 3.61146 40.9034 2.32933 40.5029C2.3917 40.5148 2.19654 40.4024 2.00406 40.0885C1.86476 39.862 1.71125 39.5488 1.5571 39.1817ZM19.7846 22.3196C20.0019 22.1016 20.2179 21.8875 20.4328 21.6774C26.8271 15.4256 32.282 12.2094 36.7679 11.0322C41.895 9.68688 45.7666 10.8886 48.8138 13.383C51.8609 15.8771 54.021 19.7569 55.2273 23.6855C56.3894 27.471 56.6356 31.2976 56.1332 33.7786L40.748 49.1638C40.591 48.9831 40.493 48.7903 40.4222 48.5725C40.2832 48.144 40.2771 47.558 40.4527 46.8295C40.8038 45.3725 41.8736 43.4562 43.1375 41.5926C44.4015 39.7289 45.8403 37.9005 46.905 36.4108C47.4377 35.6659 47.8786 35.0169 48.1784 34.4081C48.3284 34.1038 48.453 33.813 48.5072 33.4442C48.5611 33.0753 48.5009 32.4986 48.0956 32.0934C47.8649 31.8626 47.543 31.7653 47.3359 31.7535C47.1288 31.7421 47.0027 31.7791 46.9051 31.8089C46.71 31.8686 46.6192 31.9265 46.5267 31.9829C46.3417 32.0958 46.187 32.2155 46.0019 32.364C45.6315 32.6612 45.1653 33.068 44.5959 33.5602C43.457 34.5443 41.9253 35.8583 40.2069 37.1205C36.7699 39.6448 32.5912 41.77 29.813 41.073C28.3022 40.6942 27.4831 39.749 27.1086 38.2697C26.7344 36.7902 26.9398 34.7743 27.8461 32.6928C29.6587 28.5297 34.1753 24.1602 41.5632 22.948L41.1984 20.727C36.1375 21.5577 32.2137 23.7614 29.4622 26.4917C27.8111 28.1301 26.5841 29.9585 25.7856 31.7923C24.7211 34.2374 24.3947 36.7063 24.9293 38.8191C25.4638 40.9322 26.9924 42.6847 29.2659 43.2552C33.428 44.2991 37.9302 41.5824 41.5382 38.9325C42.1392 38.491 42.6683 38.0623 43.2119 37.6286C42.578 38.4835 41.9116 39.3896 41.2756 40.3273C39.9508 42.2807 38.7439 44.3175 38.2649 46.3043C38.0256 47.298 37.9702 48.306 38.2816 49.2656C38.4568 49.8045 38.7579 50.3083 39.1659 50.7456L27.617 62.2944C27.2783 62.322 27.0258 62.3104 26.9182 62.2751C26.7766 62.2286 26.7734 62.2116 26.7138 62.1149C26.5948 61.9211 26.493 61.2459 26.4181 60.444C26.3725 59.9515 26.6922 58.7704 27.3961 57.5932C28.0999 56.4161 29.1368 55.2073 30.2271 54.3697L30.4593 54.1875L30.578 53.914C30.9273 53.0847 30.7735 52.0123 30.2188 51.3895C29.6643 50.7666 28.96 50.4647 28.1694 50.1744C26.5886 49.5932 24.5307 49.1522 22.4325 48.3594C20.3345 47.5667 18.2404 46.449 16.6374 44.6362C15.0838 42.8788 13.9449 40.4468 13.7171 36.7943C13.7674 36.7348 13.8185 36.6752 13.8673 36.6158C15.4268 34.7268 17.1294 32.1835 18.1043 29.5246C18.8268 27.5541 19.156 25.4382 18.5764 23.5593C18.9823 23.1358 19.386 22.7193 19.7846 22.3196Z" fill="white"/>
</g>
<defs>
<clipPath id="clip0_96_330">
<rect width="56.3789" height="62.3098" fill="white" transform="matrix(-1 0 0 1 56.3789 0)"/>
</clipPath>
</defs>
</svg>
